<svg xmlns="http://www.w3.org/2000/svg" viewBox="0 0 410 404" fill="none"><path d="M399.641 59.524L215.643 388.545c-3.82 6.837-13.654 6.852-17.496.03L10.937 59.551c-4.22-7.49 2.202-16.556 10.62-14.972l184.717 34.785a10 10 0 003.707-.007l179.018-34.724c8.4-1.63 14.85 7.378 10.642 14.89z" fill="#41D1FF"/><path d="M292.965.014L156.316 26.79a5 5 0 00-4.05 4.118L143.86 88.22a5 5 0 006.035 5.676l38.032-8.726a5 5 0 015.995 6.177l-11.295 55.28a5 5 0 006.206 5.824l23.49-6.677a5 5 0 016.356 5.888l-17.948 87.14c-1.124 5.453 6.132 8.427 9.09 3.724l1.977-3.143 111.41-222.4c1.87-3.733-1.359-7.858-5.41-7.069z" fill="#BD34FE"/><path d="M193.233 66.145L93.817 85.654a2.5 2.5 0 00-2.02 2.06l-5.962 32.776a2.5 2.5 0 003.018 2.84l27.674-6.35a2.5 2.5 0 012.996 3.089l-8.215 40.21a2.5 2.5 0 003.104 2.912l17.095-4.86a2.5 2.5 0 013.178 2.944l-13.23 64.206c-.562 2.727 3.066 4.214 4.545 1.862l85.44-170.548c.935-1.866-.68-3.929-2.705-3.534z" fill="#FFEA83"/></svg>
